<?xml version="1.0" standalone="no"?>
<!DOCTYPE svg PUBLIC "-//W3C//DTD SVG 20010904//EN"
 "http://www.w3.org/TR/2001/REC-SVG-20010904/DTD/svg10.dtd">
<svg version="1.0" xmlns="http://www.w3.org/2000/svg"
 width="607.000000pt" height="607.000000pt" viewBox="0 0 607.000000 607.000000"
 preserveAspectRatio="xMidYMid meet">
<metadata>
Created by potrace 1.11, written by Peter Selinger 2001-2013
</metadata>
<g transform="translate(0.000000,607.000000) scale(0.100000,-0.100000)"
fill="#000000" stroke="none">
<path d="M3090 5881 c-47 -10 -117 -28 -156 -40 l-70 -22 -4 -87 c-2 -79 -6
-138 -9 -152 -1 -3 -29 -7 -63 -8 -84 -4 -195 -20 -218 -32 -12 -7 -18 -19
-17 -37 3 -41 75 -81 181 -101 l86 -16 -4 -93 c-4 -80 -2 -95 13 -106 10 -6
24 -34 31 -62 12 -43 51 -150 74 -207 6 -13 3 -15 -11 -12 -13 3 -35 -14 -77
-61 -33 -36 -67 -65 -77 -65 -9 0 -19 -7 -23 -15 -3 -8 -16 -15 -28 -15 -13 0
-32 -7 -42 -15 -11 -8 -32 -15 -47 -15 -15 0 -30 -4 -34 -9 -3 -5 -19 -13 -36
-16 -17 -4 -56 -18 -86 -31 -48 -22 -59 -23 -88 -13 -31 11 -37 10 -68 -14
-38 -29 -112 -125 -203 -262 -32 -49 -104 -137 -160 -195 -148 -154 -252 -327
-324 -536 -11 -32 -38 -84 -59 -114 -50 -71 -71 -123 -71 -173 0 -38 6 -47 68
-107 77 -76 150 -115 246 -133 82 -15 104 -39 65 -70 -13 -10 -59 -51 -101
-89 -153 -138 -245 -210 -381 -296 -265 -168 -470 -306 -508 -344 -47 -47 -64
-85 -73 -164 -10 -93 -30 -154 -84 -260 -52 -103 -68 -161 -63 -229 3 -46 33
-123 71 -180 51 -77 89 -151 128 -250 53 -136 62 -179 87 -420 10 -93 32 -201
48 -232 22 -42 46 -59 111 -79 105 -33 171 -114 235 -291 29 -78 39 -79 36 -3
-4 89 -20 263 -29 315 -3 17 -8 50 -11 75 -4 25 -13 77 -20 117 -12 60 -12 81
1 139 26 125 74 250 178 465 l62 128 52 -29 c52 -30 108 -101 177 -225 85
-154 120 -207 163 -247 77 -72 293 -211 442 -285 60 -29 71 -32 145 -28 85 4
93 5 223 35 46 11 88 20 93 20 8 0 5 -74 -6 -163 -2 -17 2 -30 9 -33 12 -5
166 48 241 81 17 8 104 38 193 68 90 30 165 57 168 60 3 3 7 27 10 54 2 26 6
66 9 88 8 69 18 305 19 440 1 127 0 132 -33 205 -33 76 -107 225 -154 313 -14
26 -24 47 -22 47 2 0 27 -33 56 -72 30 -40 58 -78 64 -84 34 -37 275 -402 275
-417 0 -4 -18 4 -40 18 -51 32 -61 32 -50 -3 4 -15 25 -104 46 -199 33 -149
41 -173 58 -175 16 -2 20 -10 19 -38 -1 -19 -2 -75 -3 -125 -2 -80 -9 -108
-57 -250 -31 -88 -68 -187 -83 -220 -31 -66 -63 -166 -55 -173 2 -3 9 8 15 24
67 181 72 189 193 313 79 80 164 144 245 185 28 14 52 31 52 37 0 5 36 46 80
90 163 163 208 252 215 426 5 124 12 147 77 272 41 78 48 100 44 132 -7 53
-17 92 -27 104 -4 6 -7 12 -7 15 1 12 -57 182 -137 400 -115 316 -156 445
-200 635 -20 88 -39 171 -41 185 -3 14 -13 66 -24 115 -10 50 -21 104 -24 120
-3 17 -16 87 -30 155 -13 69 -29 152 -35 185 -6 33 -13 71 -16 85 -3 14 -8 49
-11 78 -8 66 4 68 90 13 34 -21 70 -41 81 -44 29 -9 151 -128 159 -154 14 -44
80 -36 201 24 153 77 242 223 276 453 14 97 20 419 8 490 -5 30 -11 75 -14
100 -3 25 -9 70 -14 100 -13 79 -11 202 2 220 7 9 26 26 44 38 33 23 53 64 46
97 -7 36 -7 119 0 171 3 28 2 64 -2 80 -7 27 -11 29 -53 29 -25 0 -52 6 -61
13 -9 8 -25 11 -36 7 -10 -3 -22 -1 -25 4 -4 5 -29 9 -56 9 l-50 -1 -15 -51
c-8 -28 -17 -69 -21 -90 -4 -22 -20 -58 -35 -82 -38 -56 -47 -99 -25 -123 17
-18 15 -20 -41 -35 -73 -21 -241 -75 -268 -86 -11 -5 -71 -30 -134 -55 -62
-26 -121 -50 -130 -55 -48 -26 -184 -90 -191 -90 -5 0 -12 15 -15 33 -7 33
-39 91 -64 117 -7 8 -27 35 -42 60 -16 26 -44 55 -63 65 -28 16 -33 22 -26 40
4 12 11 48 15 81 11 106 14 112 46 119 16 4 29 10 30 13 0 4 2 16 4 26 4 19 8
109 6 134 -1 6 -11 12 -23 12 -12 0 -19 2 -17 5 7 7 61 13 169 20 136 8 270
35 270 55 0 28 -149 85 -266 101 -110 14 -136 28 -125 66 4 16 7 61 6 102 -1
69 -3 75 -30 97 -38 31 -139 80 -190 94 -57 14 -127 11 -225 -9z m1360 -958
c14 -9 27 -18 29 -19 2 -2 -24 -42 -59 -90 -89 -122 -160 -276 -158 -344 1
-27 -84 -159 -90 -141 -2 6 -28 11 -57 11 -43 0 -68 8 -132 41 -95 50 -222
134 -282 186 l-44 39 174 86 c96 48 215 103 264 124 86 36 314 123 325 124 3
0 17 -8 30 -17z m-883 -1045 c-3 -8 -6 -5 -6 6 -1 11 2 17 5 13 3 -3 4 -12 1
-19z m20 -100 c-3 -8 -6 -5 -6 6 -1 11 2 17 5 13 3 -3 4 -12 1 -19z m10 -50
c-3 -7 -5 -2 -5 12 0 14 2 19 5 13 2 -7 2 -19 0 -25z m10 -50 c-3 -8 -6 -5 -6
6 -1 11 2 17 5 13 3 -3 4 -12 1 -19z m15 -43 c3 -13 1 -22 -3 -19 -9 5 -13 44
-5 44 2 0 6 -11 8 -25z m-1349 -46 c-6 -21 -29 -36 -40 -25 -4 4 33 43 44 46
0 0 -1 -9 -4 -21z m1354 -11 c-3 -8 -6 -5 -6 6 -1 11 2 17 5 13 3 -3 4 -12 1
-19z m21 -93 c0 -16 -2 -15 -8 5 -11 34 -11 60 0 35 5 -11 8 -29 8 -40z
m-1434 -22 c-8 -30 -18 -29 -32 2 -7 14 -19 28 -27 31 -14 6 -13 8 2 20 16 11
21 10 40 -9 16 -15 21 -29 17 -44z m1443 -35 c-3 -8 -6 -5 -6 6 -1 11 2 17 5
13 3 -3 4 -12 1 -19z m10 -50 c-3 -8 -6 -5 -6 6 -1 11 2 17 5 13 3 -3 4 -12 1
-19z m152 -853 c6 -38 13 -80 15 -91 8 -42 20 -129 40 -294 9 -68 18 -296 13
-290 -3 3 -8 45 -12 93 -3 48 -8 96 -9 105 -2 9 -7 49 -10 87 -4 39 -9 81 -11
95 -6 39 -14 100 -20 160 -3 30 -8 62 -10 70 -7 26 -17 145 -12 140 3 -3 10
-36 16 -75z"/>
</g>
</svg>
